<svg xmlns="http://www.w3.org/2000/svg" xmlns:xlink="http://www.w3.org/1999/xlink" width="581" zoomAndPan="magnify" viewBox="0 0 435.75 431.999984" height="576" preserveAspectRatio="xMidYMid meet" version="1.0"><defs><g/><clipPath id="0d34ab5a04"><path d="M 289.515625 21.515625 L 434.5 21.515625 L 434.5 162.488281 L 289.515625 162.488281 Z M 289.515625 21.515625 " clip-rule="nonzero"/></clipPath><clipPath id="5cec49bca1"><path d="M 346.714844 92.054688 L 379 92.054688 L 379 409 L 346.714844 409 Z M 346.714844 92.054688 " clip-rule="nonzero"/></clipPath></defs><g fill="#000000" fill-opacity="1"><g transform="translate(21.390279, 110.712321)"><g><path d="M 15.671875 0 L 7.234375 0 L 7.234375 -69.890625 L 22.359375 -69.890625 L 41.125 -10.4375 L 59.90625 -69.890625 L 75.125 -69.890625 L 75.125 0 L 66.6875 0 L 66.6875 -64.859375 L 45.34375 0 L 37.015625 0 L 15.671875 -64.40625 Z M 15.671875 0 "/></g></g></g><g fill="#000000" fill-opacity="1"><g transform="translate(103.738477, 110.712321)"><g><path d="M 10.4375 -59.359375 C 8.789062 -59.359375 7.382812 -59.921875 6.21875 -61.046875 C 5.0625 -62.179688 4.484375 -63.546875 4.484375 -65.140625 C 4.484375 -66.722656 5.0625 -68.0625 6.21875 -69.15625 C 7.382812 -70.257812 8.789062 -70.8125 10.4375 -70.8125 C 12.09375 -70.8125 13.5 -70.257812 14.65625 -69.15625 C 15.8125 -68.0625 16.390625 -66.722656 16.390625 -65.140625 C 16.390625 -63.546875 15.8125 -62.179688 14.65625 -61.046875 C 13.5 -59.921875 12.09375 -59.359375 10.4375 -59.359375 Z M 14.296875 0 L 6.5 0 L 6.5 -50.65625 L 14.296875 -50.65625 Z M 14.296875 0 "/></g></g></g><g fill="#000000" fill-opacity="1"><g transform="translate(124.531631, 110.712321)"><g><path d="M 14.296875 0 L 6.5 0 L 6.5 -50.65625 L 14.296875 -50.65625 L 14.296875 -42.78125 C 16.859375 -46.082031 19.3125 -48.375 21.65625 -49.65625 C 24.007812 -50.9375 26.5625 -51.578125 29.3125 -51.578125 C 33.28125 -51.578125 36.457031 -50.828125 38.84375 -49.328125 C 41.226562 -47.835938 43.03125 -45.929688 44.25 -43.609375 C 45.46875 -41.347656 46.164062 -38.992188 46.34375 -36.546875 C 46.53125 -34.109375 46.625 -32.09375 46.625 -30.5 L 46.625 0 L 38.84375 0 L 38.84375 -30.5 C 38.84375 -35.875 37.863281 -39.660156 35.90625 -41.859375 C 34.195312 -43.753906 31.601562 -44.703125 28.125 -44.703125 C 26.050781 -44.703125 24.25 -44.363281 22.71875 -43.6875 C 21.1875 -43.019531 19.90625 -42.109375 18.875 -40.953125 C 17.21875 -39.242188 16.039062 -36.890625 15.34375 -33.890625 C 14.644531 -30.898438 14.296875 -26.8125 14.296875 -21.625 Z M 14.296875 0 "/></g></g></g><g fill="#000000" fill-opacity="1"><g transform="translate(177.293102, 110.712321)"><g><path d="M 14.375 0 L 6.59375 0 L 6.59375 -69.890625 L 14.375 -69.890625 L 14.375 -42.78125 C 16.945312 -46.082031 19.40625 -48.375 21.75 -49.65625 C 24.101562 -50.9375 26.65625 -51.578125 29.40625 -51.578125 C 33.375 -51.578125 36.546875 -50.828125 38.921875 -49.328125 C 41.304688 -47.835938 43.113281 -45.929688 44.34375 -43.609375 C 45.5625 -41.347656 46.257812 -38.992188 46.4375 -36.546875 C 46.625 -34.109375 46.71875 -32.09375 46.71875 -30.5 L 46.71875 0 L 38.9375 0 L 38.9375 -30.5 C 38.9375 -35.875 37.957031 -39.660156 36 -41.859375 C 34.289062 -43.753906 31.695312 -44.703125 28.21875 -44.703125 C 26.132812 -44.703125 24.328125 -44.363281 22.796875 -43.6875 C 21.273438 -43.019531 20 -42.109375 18.96875 -40.953125 C 17.3125 -39.242188 16.128906 -36.890625 15.421875 -33.890625 C 14.722656 -30.898438 14.375 -26.8125 14.375 -21.625 Z M 14.375 0 "/></g></g></g><g fill="#000000" fill-opacity="1"><g transform="translate(230.146188, 110.712321)"><g><path d="M 20.890625 0.921875 C 15.816406 0.921875 11.796875 -0.359375 8.828125 -2.921875 C 5.867188 -5.492188 4.390625 -9.007812 4.390625 -13.46875 C 4.390625 -17.863281 6.039062 -21.34375 9.34375 -23.90625 C 12.03125 -26.039062 15.910156 -27.628906 20.984375 -28.671875 L 39.03125 -32.15625 C 39.03125 -36.125 37.988281 -39.144531 35.90625 -41.21875 C 33.59375 -43.539062 30.476562 -44.703125 26.5625 -44.703125 C 23.445312 -44.703125 20.742188 -43.878906 18.453125 -42.234375 C 16.171875 -40.585938 14.722656 -38.328125 14.109375 -35.453125 L 6.328125 -35.453125 C 6.929688 -38.992188 8.222656 -41.953125 10.203125 -44.328125 C 12.191406 -46.710938 14.617188 -48.515625 17.484375 -49.734375 C 20.359375 -50.960938 23.414062 -51.578125 26.65625 -51.578125 C 29.59375 -51.578125 32.359375 -51.148438 34.953125 -50.296875 C 37.546875 -49.441406 39.726562 -48.128906 41.5 -46.359375 C 43.269531 -44.648438 44.519531 -42.722656 45.25 -40.578125 C 45.988281 -38.441406 46.429688 -36.410156 46.578125 -34.484375 C 46.734375 -32.566406 46.8125 -31.023438 46.8125 -29.859375 L 46.8125 0 L 39.03125 0 L 39.03125 -7.96875 C 37.257812 -5.40625 35.210938 -3.421875 32.890625 -2.015625 C 31.179688 -0.972656 29.332031 -0.222656 27.34375 0.234375 C 25.363281 0.691406 23.210938 0.921875 20.890625 0.921875 Z M 21.796875 -5.953125 C 24.910156 -5.953125 27.597656 -6.53125 29.859375 -7.6875 C 33.460938 -9.582031 35.90625 -12.023438 37.1875 -15.015625 C 38.476562 -18.015625 39.125 -21.617188 39.125 -25.828125 L 22.625 -22.53125 C 18.84375 -21.800781 16.066406 -20.613281 14.296875 -18.96875 C 12.890625 -17.5625 12.1875 -15.789062 12.1875 -13.65625 C 12.1875 -11.332031 13.054688 -9.46875 14.796875 -8.0625 C 16.535156 -6.65625 18.867188 -5.953125 21.796875 -5.953125 Z M 21.796875 -5.953125 "/></g></g></g><g fill="#000000" fill-opacity="1"><g transform="translate(21.390279, 203.658991)"><g><path d="M 15.671875 0 L 7.234375 0 L 7.234375 -69.890625 L 33.25 -69.890625 C 39.96875 -69.890625 45.34375 -68.238281 49.375 -64.9375 C 53.40625 -61.644531 55.421875 -56.640625 55.421875 -49.921875 C 55.421875 -43.515625 53.40625 -38.507812 49.375 -34.90625 C 45.34375 -31.300781 39.96875 -29.5 33.25 -29.5 L 15.671875 -29.5 Z M 15.671875 -62.296875 L 15.671875 -37.015625 L 32.15625 -37.015625 C 36.976562 -37.015625 40.671875 -38.097656 43.234375 -40.265625 C 45.804688 -42.429688 47.09375 -45.5625 47.09375 -49.65625 C 47.09375 -53.6875 45.773438 -56.800781 43.140625 -59 C 40.515625 -61.195312 36.851562 -62.296875 32.15625 -62.296875 Z M 15.671875 -62.296875 "/></g></g></g><g fill="#000000" fill-opacity="1"><g transform="translate(80.014136, 203.658991)"><g><path d="M 14.296875 0 L 6.5 0 L 6.5 -50.65625 L 14.296875 -50.65625 L 14.296875 -43.703125 C 16.609375 -46.566406 19.09375 -48.59375 21.75 -49.78125 C 24.414062 -50.976562 27.457031 -51.578125 30.875 -51.578125 L 31.234375 -51.578125 L 31.234375 -43.796875 L 28.578125 -43.796875 C 24.484375 -43.796875 21.21875 -42.570312 18.78125 -40.125 C 17.3125 -38.71875 16.195312 -36.914062 15.4375 -34.71875 C 14.675781 -32.519531 14.296875 -29.832031 14.296875 -26.65625 Z M 14.296875 0 "/></g></g></g><g fill="#000000" fill-opacity="1"><g transform="translate(113.264852, 203.658991)"><g><path d="M 29.046875 0.921875 C 24.210938 0.921875 19.929688 -0.222656 16.203125 -2.515625 C 12.484375 -4.804688 9.582031 -7.921875 7.5 -11.859375 C 5.425781 -15.796875 4.390625 -20.238281 4.390625 -25.1875 C 4.390625 -29.769531 5.335938 -34.078125 7.234375 -38.109375 C 9.128906 -42.140625 11.90625 -45.390625 15.5625 -47.859375 C 19.226562 -50.335938 23.660156 -51.578125 28.859375 -51.578125 C 33.128906 -51.578125 37.113281 -50.628906 40.8125 -48.734375 C 44.507812 -46.835938 47.515625 -44.023438 49.828125 -40.296875 C 52.148438 -36.578125 53.3125 -32 53.3125 -26.5625 L 53.3125 -23.8125 L 12.09375 -23.8125 C 12.21875 -22.039062 12.550781 -20.363281 13.09375 -18.78125 C 14.382812 -14.875 16.429688 -11.757812 19.234375 -9.4375 C 22.046875 -7.113281 25.285156 -5.953125 28.953125 -5.953125 C 32.796875 -5.953125 36 -6.972656 38.5625 -9.015625 C 41.132812 -11.066406 42.96875 -13.5 44.0625 -16.3125 L 52.40625 -16.3125 C 51.363281 -13.132812 49.800781 -10.242188 47.71875 -7.640625 C 45.644531 -5.046875 43.066406 -2.96875 39.984375 -1.40625 C 36.898438 0.144531 33.253906 0.921875 29.046875 0.921875 Z M 12.828125 -30.6875 L 44.984375 -30.6875 C 44.921875 -31.539062 44.796875 -32.394531 44.609375 -33.25 C 44.429688 -34.101562 44.1875 -34.898438 43.875 -35.640625 C 42.53125 -38.566406 40.53125 -40.804688 37.875 -42.359375 C 35.21875 -43.921875 32.273438 -44.703125 29.046875 -44.703125 C 25.679688 -44.703125 22.726562 -43.90625 20.1875 -42.3125 C 17.65625 -40.726562 15.691406 -38.503906 14.296875 -35.640625 C 13.921875 -34.835938 13.613281 -34.007812 13.375 -33.15625 C 13.132812 -32.300781 12.953125 -31.476562 12.828125 -30.6875 Z M 12.828125 -30.6875 "/></g></g></g><g fill="#000000" fill-opacity="1"><g transform="translate(170.881109, 203.658991)"><g><path d="M 29.6875 0 L 22.625 0 C 20.125 0 17.972656 -0.347656 16.171875 -1.046875 C 14.367188 -1.753906 12.992188 -3.035156 12.046875 -4.890625 C 11.097656 -6.753906 10.625 -9.367188 10.625 -12.734375 L 10.625 -43.796875 L 2.46875 -43.796875 L 2.46875 -50.65625 L 10.625 -50.65625 L 10.625 -69.890625 L 18.40625 -69.890625 L 18.40625 -50.65625 L 29.765625 -50.65625 L 29.765625 -43.796875 L 18.40625 -43.796875 L 18.40625 -14.296875 C 18.40625 -12.828125 18.515625 -11.523438 18.734375 -10.390625 C 18.953125 -9.265625 19.488281 -8.394531 20.34375 -7.78125 C 21.195312 -7.175781 22.566406 -6.875 24.453125 -6.875 L 29.6875 -6.875 Z M 29.6875 0 "/></g></g></g><g fill="#000000" fill-opacity="1"><g transform="translate(203.94863, 203.658991)"><g><path d="M 20.890625 0.921875 C 15.816406 0.921875 11.796875 -0.359375 8.828125 -2.921875 C 5.867188 -5.492188 4.390625 -9.007812 4.390625 -13.46875 C 4.390625 -17.863281 6.039062 -21.34375 9.34375 -23.90625 C 12.03125 -26.039062 15.910156 -27.628906 20.984375 -28.671875 L 39.03125 -32.15625 C 39.03125 -36.125 37.988281 -39.144531 35.90625 -41.21875 C 33.59375 -43.539062 30.476562 -44.703125 26.5625 -44.703125 C 23.445312 -44.703125 20.742188 -43.878906 18.453125 -42.234375 C 16.171875 -40.585938 14.722656 -38.328125 14.109375 -35.453125 L 6.328125 -35.453125 C 6.929688 -38.992188 8.222656 -41.953125 10.203125 -44.328125 C 12.191406 -46.710938 14.617188 -48.515625 17.484375 -49.734375 C 20.359375 -50.960938 23.414062 -51.578125 26.65625 -51.578125 C 29.59375 -51.578125 32.359375 -51.148438 34.953125 -50.296875 C 37.546875 -49.441406 39.726562 -48.128906 41.5 -46.359375 C 43.269531 -44.648438 44.519531 -42.722656 45.25 -40.578125 C 45.988281 -38.441406 46.429688 -36.410156 46.578125 -34.484375 C 46.734375 -32.566406 46.8125 -31.023438 46.8125 -29.859375 L 46.8125 0 L 39.03125 0 L 39.03125 -7.96875 C 37.257812 -5.40625 35.210938 -3.421875 32.890625 -2.015625 C 31.179688 -0.972656 29.332031 -0.222656 27.34375 0.234375 C 25.363281 0.691406 23.210938 0.921875 20.890625 0.921875 Z M 21.796875 -5.953125 C 24.910156 -5.953125 27.597656 -6.53125 29.859375 -7.6875 C 33.460938 -9.582031 35.90625 -12.023438 37.1875 -15.015625 C 38.476562 -18.015625 39.125 -21.617188 39.125 -25.828125 L 22.625 -22.53125 C 18.84375 -21.800781 16.066406 -20.613281 14.296875 -18.96875 C 12.890625 -17.5625 12.1875 -15.789062 12.1875 -13.65625 C 12.1875 -11.332031 13.054688 -9.46875 14.796875 -8.0625 C 16.535156 -6.65625 18.867188 -5.953125 21.796875 -5.953125 Z M 21.796875 -5.953125 "/></g></g></g><g fill="#000000" fill-opacity="1"><g transform="translate(256.710101, 203.658991)"><g><path d="M 5.859375 15.671875 L 5.859375 11.546875 C 8.734375 11.117188 10.914062 10.019531 12.40625 8.25 C 13.90625 6.476562 14.65625 4.28125 14.65625 1.65625 C 14.65625 0.738281 14.5625 -0.175781 14.375 -1.09375 C 13.582031 0.25 12.210938 0.921875 10.265625 0.921875 C 8.984375 0.921875 7.867188 0.445312 6.921875 -0.5 C 5.972656 -1.445312 5.5 -2.71875 5.5 -4.3125 C 5.5 -5.894531 6.03125 -7.21875 7.09375 -8.28125 C 8.164062 -9.351562 9.585938 -9.890625 11.359375 -9.890625 C 13.804688 -9.890625 15.726562 -8.910156 17.125 -6.953125 C 18.53125 -5.003906 19.234375 -2.441406 19.234375 0.734375 C 19.234375 2.929688 18.789062 5.113281 17.90625 7.28125 C 17.019531 9.445312 15.597656 11.289062 13.640625 12.8125 C 11.691406 14.34375 9.097656 15.296875 5.859375 15.671875 Z M 5.859375 15.671875 "/></g></g></g><g fill="#000000" fill-opacity="1"><g transform="translate(21.390279, 296.605662)"><g><path d="M 15.671875 0 L 7.234375 0 L 7.234375 -69.890625 L 22.359375 -69.890625 L 41.125 -10.4375 L 59.90625 -69.890625 L 75.125 -69.890625 L 75.125 0 L 66.6875 0 L 66.6875 -64.859375 L 45.34375 0 L 37.015625 0 L 15.671875 -64.40625 Z M 15.671875 0 "/></g></g></g><g fill="#000000" fill-opacity="1"><g transform="translate(103.738477, 296.605662)"><g><path d="M 10.4375 -59.359375 C 8.789062 -59.359375 7.382812 -59.921875 6.21875 -61.046875 C 5.0625 -62.179688 4.484375 -63.546875 4.484375 -65.140625 C 4.484375 -66.722656 5.0625 -68.0625 6.21875 -69.15625 C 7.382812 -70.257812 8.789062 -70.8125 10.4375 -70.8125 C 12.09375 -70.8125 13.5 -70.257812 14.65625 -69.15625 C 15.8125 -68.0625 16.390625 -66.722656 16.390625 -65.140625 C 16.390625 -63.546875 15.8125 -62.179688 14.65625 -61.046875 C 13.5 -59.921875 12.09375 -59.359375 10.4375 -59.359375 Z M 14.296875 0 L 6.5 0 L 6.5 -50.65625 L 14.296875 -50.65625 Z M 14.296875 0 "/></g></g></g><g fill="#000000" fill-opacity="1"><g transform="translate(124.531631, 296.605662)"><g><path d="M 14.296875 0 L 6.5 0 L 6.5 -50.65625 L 14.296875 -50.65625 L 14.296875 -42.78125 C 16.859375 -46.082031 19.3125 -48.375 21.65625 -49.65625 C 24.007812 -50.9375 26.5625 -51.578125 29.3125 -51.578125 C 33.28125 -51.578125 36.457031 -50.828125 38.84375 -49.328125 C 41.226562 -47.835938 43.03125 -45.929688 44.25 -43.609375 C 45.46875 -41.347656 46.164062 -38.992188 46.34375 -36.546875 C 46.53125 -34.109375 46.625 -32.09375 46.625 -30.5 L 46.625 0 L 38.84375 0 L 38.84375 -30.5 C 38.84375 -35.875 37.863281 -39.660156 35.90625 -41.859375 C 34.195312 -43.753906 31.601562 -44.703125 28.125 -44.703125 C 26.050781 -44.703125 24.25 -44.363281 22.71875 -43.6875 C 21.1875 -43.019531 19.90625 -42.109375 18.875 -40.953125 C 17.21875 -39.242188 16.039062 -36.890625 15.34375 -33.890625 C 14.644531 -30.898438 14.296875 -26.8125 14.296875 -21.625 Z M 14.296875 0 "/></g></g></g><g fill="#000000" fill-opacity="1"><g transform="translate(177.293102, 296.605662)"><g><path d="M 14.375 0 L 6.59375 0 L 6.59375 -69.890625 L 14.375 -69.890625 L 14.375 -42.78125 C 16.945312 -46.082031 19.40625 -48.375 21.75 -49.65625 C 24.101562 -50.9375 26.65625 -51.578125 29.40625 -51.578125 C 33.375 -51.578125 36.546875 -50.828125 38.921875 -49.328125 C 41.304688 -47.835938 43.113281 -45.929688 44.34375 -43.609375 C 45.5625 -41.347656 46.257812 -38.992188 46.4375 -36.546875 C 46.625 -34.109375 46.71875 -32.09375 46.71875 -30.5 L 46.71875 0 L 38.9375 0 L 38.9375 -30.5 C 38.9375 -35.875 37.957031 -39.660156 36 -41.859375 C 34.289062 -43.753906 31.695312 -44.703125 28.21875 -44.703125 C 26.132812 -44.703125 24.328125 -44.363281 22.796875 -43.6875 C 21.273438 -43.019531 20 -42.109375 18.96875 -40.953125 C 17.3125 -39.242188 16.128906 -36.890625 15.421875 -33.890625 C 14.722656 -30.898438 14.375 -26.8125 14.375 -21.625 Z M 14.375 0 "/></g></g></g><g fill="#000000" fill-opacity="1"><g transform="translate(230.146188, 296.605662)"><g><path d="M 20.890625 0.921875 C 15.816406 0.921875 11.796875 -0.359375 8.828125 -2.921875 C 5.867188 -5.492188 4.390625 -9.007812 4.390625 -13.46875 C 4.390625 -17.863281 6.039062 -21.34375 9.34375 -23.90625 C 12.03125 -26.039062 15.910156 -27.628906 20.984375 -28.671875 L 39.03125 -32.15625 C 39.03125 -36.125 37.988281 -39.144531 35.90625 -41.21875 C 33.59375 -43.539062 30.476562 -44.703125 26.5625 -44.703125 C 23.445312 -44.703125 20.742188 -43.878906 18.453125 -42.234375 C 16.171875 -40.585938 14.722656 -38.328125 14.109375 -35.453125 L 6.328125 -35.453125 C 6.929688 -38.992188 8.222656 -41.953125 10.203125 -44.328125 C 12.191406 -46.710938 14.617188 -48.515625 17.484375 -49.734375 C 20.359375 -50.960938 23.414062 -51.578125 26.65625 -51.578125 C 29.59375 -51.578125 32.359375 -51.148438 34.953125 -50.296875 C 37.546875 -49.441406 39.726562 -48.128906 41.5 -46.359375 C 43.269531 -44.648438 44.519531 -42.722656 45.25 -40.578125 C 45.988281 -38.441406 46.429688 -36.410156 46.578125 -34.484375 C 46.734375 -32.566406 46.8125 -31.023438 46.8125 -29.859375 L 46.8125 0 L 39.03125 0 L 39.03125 -7.96875 C 37.257812 -5.40625 35.210938 -3.421875 32.890625 -2.015625 C 31.179688 -0.972656 29.332031 -0.222656 27.34375 0.234375 C 25.363281 0.691406 23.210938 0.921875 20.890625 0.921875 Z M 21.796875 -5.953125 C 24.910156 -5.953125 27.597656 -6.53125 29.859375 -7.6875 C 33.460938 -9.582031 35.90625 -12.023438 37.1875 -15.015625 C 38.476562 -18.015625 39.125 -21.617188 39.125 -25.828125 L 22.625 -22.53125 C 18.84375 -21.800781 16.066406 -20.613281 14.296875 -18.96875 C 12.890625 -17.5625 12.1875 -15.789062 12.1875 -13.65625 C 12.1875 -11.332031 13.054688 -9.46875 14.796875 -8.0625 C 16.535156 -6.65625 18.867188 -5.953125 21.796875 -5.953125 Z M 21.796875 -5.953125 "/></g></g></g><g fill="#000000" fill-opacity="1"><g transform="translate(21.390279, 389.552332)"><g><path d="M 15.671875 0 L 7.234375 0 L 7.234375 -69.890625 L 52.40625 -69.890625 L 52.40625 -62.296875 L 15.671875 -62.296875 L 15.671875 -38.84375 L 48.09375 -38.84375 L 48.09375 -31.328125 L 15.671875 -31.328125 Z M 15.671875 0 "/></g></g></g><g fill="#000000" fill-opacity="1"><g transform="translate(76.44175, 389.552332)"><g><path d="M 22.625 0 L 18.328125 0 C 15.816406 0 13.660156 -0.347656 11.859375 -1.046875 C 10.054688 -1.753906 8.679688 -3.035156 7.734375 -4.890625 C 6.796875 -6.753906 6.328125 -9.367188 6.328125 -12.734375 L 6.328125 -69.890625 L 14.109375 -69.890625 L 14.109375 -13.921875 C 14.109375 -12.398438 14.210938 -11.117188 14.421875 -10.078125 C 14.640625 -9.035156 15.175781 -8.238281 16.03125 -7.6875 C 16.882812 -7.144531 18.257812 -6.875 20.15625 -6.875 L 22.625 -6.875 Z M 22.625 0 "/></g></g></g><g fill="#000000" fill-opacity="1"><g transform="translate(101.814891, 389.552332)"><g><path d="M 29.125 0.921875 C 24.300781 0.921875 20.023438 -0.207031 16.296875 -2.46875 C 12.578125 -4.726562 9.660156 -7.859375 7.546875 -11.859375 C 5.441406 -15.859375 4.390625 -20.425781 4.390625 -25.5625 C 4.390625 -30.570312 5.441406 -35.03125 7.546875 -38.9375 C 9.660156 -42.84375 12.578125 -45.925781 16.296875 -48.1875 C 20.023438 -50.445312 24.300781 -51.578125 29.125 -51.578125 C 33.957031 -51.578125 38.25 -50.445312 42 -48.1875 C 45.757812 -45.925781 48.707031 -42.84375 50.84375 -38.9375 C 52.976562 -35.03125 54.046875 -30.570312 54.046875 -25.5625 C 54.046875 -20.488281 52.992188 -15.953125 50.890625 -11.953125 C 48.785156 -7.953125 45.851562 -4.804688 42.09375 -2.515625 C 38.332031 -0.222656 34.007812 0.921875 29.125 0.921875 Z M 29.125 -5.953125 C 32.363281 -5.953125 35.265625 -6.804688 37.828125 -8.515625 C 40.398438 -10.222656 42.429688 -12.554688 43.921875 -15.515625 C 45.421875 -18.484375 46.171875 -21.832031 46.171875 -25.5625 C 46.171875 -29.164062 45.4375 -32.414062 43.96875 -35.3125 C 42.507812 -38.21875 40.492188 -40.507812 37.921875 -42.1875 C 35.359375 -43.863281 32.425781 -44.703125 29.125 -44.703125 C 25.894531 -44.703125 22.992188 -43.878906 20.421875 -42.234375 C 17.859375 -40.585938 15.84375 -38.3125 14.375 -35.40625 C 12.914062 -32.507812 12.1875 -29.226562 12.1875 -25.5625 C 12.1875 -21.769531 12.929688 -18.394531 14.421875 -15.4375 C 15.921875 -12.476562 17.953125 -10.15625 20.515625 -8.46875 C 23.085938 -6.789062 25.957031 -5.953125 29.125 -5.953125 Z M 29.125 -5.953125 "/></g></g></g><g fill="#000000" fill-opacity="1"><g transform="translate(160.347145, 389.552332)"><g><path d="M 14.296875 0 L 6.5 0 L 6.5 -50.65625 L 14.296875 -50.65625 L 14.296875 -43.703125 C 16.609375 -46.566406 19.09375 -48.59375 21.75 -49.78125 C 24.414062 -50.976562 27.457031 -51.578125 30.875 -51.578125 L 31.234375 -51.578125 L 31.234375 -43.796875 L 28.578125 -43.796875 C 24.484375 -43.796875 21.21875 -42.570312 18.78125 -40.125 C 17.3125 -38.71875 16.195312 -36.914062 15.4375 -34.71875 C 14.675781 -32.519531 14.296875 -29.832031 14.296875 -26.65625 Z M 14.296875 0 "/></g></g></g><g clip-path="url(#0d34ab5a04)"><path fill="#000000" d="M 323.539062 153.863281 C 322.523438 156.148438 320.378906 159.167969 317.699219 159.84375 C 318.632812 160.746094 319.703125 161.339844 321.027344 161.167969 C 321.789062 161.058594 321.988281 162.410156 321.226562 162.523438 C 318.125 162.976562 316.261719 160.4375 314.738281 158.066406 C 312.792969 155.019531 311.4375 152.085938 311.042969 148.476562 C 310.789062 146.191406 310.761719 143.878906 310.253906 141.621094 C 309.859375 139.84375 308.898438 138.238281 308.476562 136.460938 C 307.996094 134.402344 308.699219 132.003906 311.015625 131.609375 C 311.410156 131.550781 311.605469 132.117188 311.183594 132.230469 C 307.320312 133.214844 310.335938 138.125 311.015625 140.269531 C 311.746094 142.582031 311.832031 145.007812 312.113281 147.375 C 312.480469 150.367188 313.242188 152.988281 314.792969 155.585938 C 315.414062 156.628906 316.148438 157.980469 317.078125 159.140625 C 318.375 158.746094 319.449219 158.238281 320.492188 157.191406 C 321.5625 156.121094 322.296875 154.796875 323.226562 153.609375 C 323.367188 153.386719 323.652344 153.667969 323.539062 153.863281 Z M 344.949219 150.59375 C 349.125 148.222656 352.679688 144.582031 354.707031 140.269531 C 354.878906 139.929688 355.328125 140.183594 355.273438 140.492188 C 354.398438 145.0625 349.09375 149.011719 345.203125 151.015625 C 344.921875 151.183594 344.667969 150.761719 344.949219 150.59375 Z M 411.210938 116.769531 C 408.164062 115.953125 405.089844 116.09375 401.984375 115.980469 C 399.644531 115.894531 396.964844 115.753906 394.960938 114.402344 C 394.734375 114.230469 394.875 113.867188 395.160156 113.949219 C 398.09375 114.683594 400.800781 115.164062 403.820312 115.304688 C 406.386719 115.417969 408.894531 115.585938 411.351562 116.402344 C 411.546875 116.460938 411.460938 116.828125 411.210938 116.769531 Z M 389.515625 132.820312 C 387.910156 132.3125 385.992188 131.582031 384.835938 130.28125 C 384.695312 130.113281 384.863281 129.859375 385.0625 129.972656 C 385.765625 130.367188 386.414062 130.929688 387.117188 131.324219 C 387.910156 131.777344 388.726562 132.171875 389.601562 132.484375 C 389.796875 132.566406 389.714844 132.878906 389.515625 132.820312 Z M 408.273438 66.363281 C 409.121094 65.066406 410.8125 63.851562 412.449219 64.332031 C 412.703125 64.417969 412.730469 64.785156 412.449219 64.839844 C 411.773438 64.980469 411.097656 65.007812 410.417969 65.292969 C 409.742188 65.601562 409.066406 66.023438 408.585938 66.589844 C 408.445312 66.757812 408.164062 66.53125 408.273438 66.363281 Z M 399.558594 82.863281 C 394.03125 88.5625 389.234375 95.277344 381.394531 97.730469 C 381.195312 97.785156 381.113281 97.476562 381.308594 97.417969 C 385.371094 95.925781 388.726562 93.300781 391.660156 90.171875 C 394.113281 87.546875 396.285156 84.527344 399.191406 82.386719 C 399.472656 82.1875 399.785156 82.640625 399.558594 82.863281 Z M 375.1875 64.417969 C 374.085938 65.234375 373.691406 68.027344 373.324219 69.296875 C 372.875 70.90625 372.421875 72.484375 372.027344 74.09375 C 371.972656 74.289062 371.660156 74.203125 371.71875 74.007812 C 372.253906 71.496094 372.816406 69.015625 373.496094 66.5625 C 373.777344 65.574219 373.859375 64.050781 375.074219 64.023438 C 375.300781 63.992188 375.328125 64.304688 375.1875 64.417969 Z M 385.792969 50.03125 C 387.628906 47.039062 389.292969 43.964844 389.996094 40.496094 C 390.644531 37.195312 390.925781 33.753906 391.800781 30.511719 C 391.886719 30.230469 392.367188 30.285156 392.335938 30.597656 C 392.085938 34.035156 391.324219 37.675781 390.5625 41.058594 C 389.796875 44.5 387.964844 47.320312 386.074219 50.226562 C 385.964844 50.398438 385.652344 50.226562 385.792969 50.03125 Z M 373.578125 78.972656 C 374.820312 71.664062 377.246094 64.753906 379.925781 57.871094 C 381.222656 54.488281 382.578125 51.101562 383.734375 47.6875 C 384.945312 44.136719 385.792969 40.523438 386.867188 36.914062 C 386.949219 36.632812 387.429688 36.6875 387.402344 37 C 386.640625 44.136719 383.425781 51.128906 380.828125 57.757812 C 378.09375 64.699219 375.242188 71.722656 373.917969 79.085938 C 373.859375 79.28125 373.550781 79.195312 373.578125 78.972656 Z M 318.6875 86.953125 C 322.324219 87.6875 325.9375 88.589844 329.519531 89.464844 C 332.425781 90.199219 335.667969 90.792969 338.347656 92.175781 C 338.660156 92.34375 338.433594 92.765625 338.121094 92.710938 C 335.019531 92.175781 331.945312 90.960938 328.871094 90.140625 C 325.429688 89.238281 321.957031 88.335938 318.574219 87.292969 C 318.375 87.207031 318.460938 86.925781 318.6875 86.953125 Z M 313.609375 74.628906 C 313.273438 74.515625 313.414062 74.035156 313.75 74.09375 C 316.710938 74.742188 319.390625 76.292969 321.847656 78.011719 C 321.957031 78.097656 321.847656 78.292969 321.734375 78.210938 C 319.222656 76.546875 316.457031 75.558594 313.609375 74.628906 Z M 308.195312 73.414062 C 314.597656 75.472656 321 78.4375 326.753906 81.875 C 326.921875 81.960938 326.8125 82.242188 326.613281 82.1875 C 326.414062 82.132812 326.21875 82.074219 326.019531 82.019531 C 325.9375 81.992188 325.9375 81.847656 326.046875 81.847656 C 325.003906 81.847656 323.171875 80.496094 322.183594 80.042969 C 320.71875 79.339844 319.25 78.660156 317.757812 78.011719 C 314.539062 76.601562 311.269531 75.417969 308.023438 74.121094 C 307.601562 73.921875 307.769531 73.273438 308.195312 73.414062 Z M 333.550781 47.292969 C 333.75 57.703125 335.695312 67.605469 340.464844 76.96875 C 340.574219 77.222656 340.238281 77.421875 340.097656 77.195312 C 335.160156 68.195312 332.199219 57.648438 332.820312 47.320312 C 332.847656 46.816406 333.523438 46.816406 333.550781 47.292969 Z M 339.785156 32.34375 C 340.464844 34.460938 340.519531 36.773438 340.832031 38.945312 C 341.199219 41.511719 341.761719 44.078125 342.464844 46.589844 C 342.523438 46.84375 342.15625 46.925781 342.101562 46.703125 C 341.28125 44.21875 340.605469 41.738281 340.152344 39.140625 C 339.757812 36.746094 339.617188 34.347656 338.941406 32.007812 C 338.828125 31.582031 339.421875 31.414062 339.589844 31.78125 C 339.671875 31.667969 339.785156 31.609375 339.957031 31.640625 C 343.199219 32.203125 345.710938 34.488281 346.699219 37.617188 C 346.78125 37.84375 346.414062 37.929688 346.359375 37.703125 C 345.34375 34.855469 342.777344 32.824219 339.785156 32.34375 Z M 358.347656 54.996094 C 356.851562 50.734375 355.722656 46.703125 352.988281 42.980469 C 352.875 42.808594 353.15625 42.585938 353.269531 42.753906 C 355.976562 46.136719 358.574219 50.480469 358.796875 54.910156 C 358.828125 55.191406 358.433594 55.21875 358.347656 54.996094 Z M 356.710938 97.730469 C 357.105469 97.984375 357.472656 98.210938 357.867188 98.4375 C 358.039062 98.519531 358.207031 98.578125 358.375 98.605469 C 358.882812 99.648438 359.335938 100.691406 359.785156 101.734375 C 358.742188 100.410156 357.699219 99.085938 356.710938 97.730469 Z M 362.746094 100.015625 C 362.890625 100.804688 363 101.625 363.085938 102.414062 C 362.832031 102.128906 362.605469 101.847656 362.351562 101.566406 C 361.703125 100.101562 361.054688 98.632812 360.492188 97.167969 C 359.390625 94.34375 358.320312 91.523438 357.304688 88.703125 C 357.726562 89.410156 358.261719 90.03125 358.910156 90.453125 C 359.25 90.679688 359.589844 90.734375 359.871094 90.679688 C 359.984375 90.875 360.097656 91.042969 360.238281 91.214844 C 360.238281 91.242188 360.265625 91.242188 360.292969 91.269531 C 360.210938 91.410156 360.179688 91.609375 360.238281 91.835938 C 360.886719 94.628906 362.269531 97.136719 362.746094 100.015625 Z M 372.507812 100.4375 C 371.71875 101.3125 370.898438 102.101562 370.027344 102.894531 C 370.675781 101.933594 371.265625 100.945312 371.804688 99.929688 C 372.054688 100.101562 372.28125 100.269531 372.507812 100.4375 Z M 378.769531 94.710938 L 378.769531 94.683594 L 378.796875 94.710938 C 378.796875 94.683594 378.796875 94.683594 378.769531 94.710938 Z M 359.871094 97.929688 C 359.871094 97.929688 359.898438 97.929688 359.871094 97.929688 C 359.871094 97.929688 359.898438 97.957031 359.898438 97.984375 C 359.898438 97.957031 359.898438 97.957031 359.871094 97.929688 Z M 364.667969 96.574219 C 364.667969 96.347656 364.667969 96.152344 364.636719 95.925781 C 364.75 96.375 364.835938 96.800781 364.949219 97.25 C 364.863281 96.996094 364.75 96.769531 364.667969 96.574219 Z M 370.589844 92.765625 C 370.703125 92.765625 370.816406 92.738281 370.929688 92.710938 C 370.757812 93.078125 370.5625 93.472656 370.390625 93.835938 C 370.421875 93.472656 370.503906 93.132812 370.589844 92.765625 Z M 356.570312 93.835938 C 356.511719 93.78125 356.542969 93.78125 356.570312 93.835938 Z M 356.402344 38.523438 C 356.429688 35.476562 355.976562 32.429688 355.5 29.4375 C 355.46875 29.183594 355.019531 29.242188 355.046875 29.496094 C 355.359375 32.0625 355.441406 34.628906 355.554688 37.226562 C 355.414062 37 355.273438 36.800781 355.132812 36.601562 C 353.4375 34.261719 351.265625 32.203125 348.785156 30.847656 C 348.8125 30.820312 348.839844 30.792969 348.871094 30.765625 C 348.898438 30.707031 348.953125 30.652344 348.980469 30.597656 C 349.179688 30.3125 348.8125 30.03125 348.53125 30.144531 C 349.433594 29.664062 349.914062 28.507812 350.648438 27.632812 C 351.324219 26.84375 352.113281 26.140625 352.902344 25.460938 C 353.75 24.726562 355.359375 22.980469 356.542969 22.921875 C 357.640625 22.867188 357.980469 24.21875 358.574219 25.011719 C 361.226562 28.621094 365.457031 31.554688 365.003906 36.546875 C 364.976562 36.800781 365.117188 37 365.316406 37.109375 C 363.3125 41.285156 362.578125 46.023438 361.988281 50.652344 C 361.957031 50.539062 361.929688 50.425781 361.871094 50.3125 C 362.523438 48.085938 361.988281 45.347656 361.871094 43.148438 C 361.675781 39.59375 361.5625 36.066406 360.660156 32.597656 C 360.574219 32.289062 360.125 32.429688 360.179688 32.738281 C 360.859375 35.898438 360.914062 39.113281 361.054688 42.328125 C 361.140625 44.277344 361.535156 46.617188 361.335938 48.734375 C 360.828125 47.464844 360.265625 46.222656 359.730469 45.007812 C 358.6875 42.808594 357.640625 40.609375 356.402344 38.523438 Z M 432.757812 72.34375 C 432.730469 72.34375 432.703125 72.371094 432.675781 72.371094 C 432.703125 72.117188 432.703125 71.835938 432.730469 71.582031 C 432.757812 71.300781 432.28125 71.214844 432.222656 71.523438 C 431.886719 73.160156 431.152344 74.628906 430.671875 76.234375 C 430.476562 76.855469 431.433594 77.28125 431.714844 76.6875 C 432.28125 75.558594 432.507812 74.234375 432.617188 72.964844 C 432.675781 73.019531 432.757812 73.046875 432.84375 73.078125 C 434.902344 73.300781 432.648438 77.929688 432.222656 78.492188 C 432.167969 78.578125 432.109375 78.632812 432.054688 78.71875 C 431.800781 78.605469 431.492188 78.914062 431.605469 79.195312 C 430.898438 79.875 430.050781 80.382812 429.234375 80.917969 C 427.964844 81.765625 426.609375 82.640625 426.414062 84.246094 C 426.355469 84.640625 426.921875 84.78125 427.148438 84.558594 C 428.527344 83.230469 429.828125 82.214844 431.378906 81.117188 C 431.660156 80.917969 431.914062 80.722656 432.140625 80.496094 C 432.476562 81.652344 432.449219 82.894531 431.914062 83.992188 C 431.320312 85.234375 430.109375 85.910156 429.402344 87.039062 C 428.527344 88.394531 428.246094 89.578125 426.78125 90.539062 C 425.566406 91.328125 424.15625 91.808594 422.832031 92.34375 C 420.234375 93.386719 417.640625 94.375 415.042969 95.304688 C 415.042969 95.304688 415.042969 95.304688 415.074219 95.277344 C 416.625 94.375 418.0625 93.21875 419.558594 92.203125 C 421.25 91.042969 423.027344 89.972656 424.664062 88.730469 C 424.863281 88.589844 424.691406 88.308594 424.46875 88.421875 C 422.746094 89.324219 420.914062 90.339844 419.164062 91.441406 C 420.800781 89.804688 422.4375 88.195312 424.296875 86.8125 C 424.636719 86.558594 424.351562 86.109375 423.988281 86.277344 C 420.742188 87.746094 418.402344 90.480469 415.777344 92.792969 C 414.226562 94.175781 412.5625 95.359375 410.703125 96.292969 C 409.007812 97.167969 407.175781 97.617188 405.511719 98.519531 C 405.511719 98.519531 405.511719 98.519531 405.484375 98.519531 C 403.648438 99.113281 401.789062 99.675781 399.953125 100.242188 C 402.886719 97.277344 404.804688 92.765625 408.386719 90.707031 C 408.585938 90.59375 408.414062 90.3125 408.21875 90.425781 C 405.734375 91.777344 404.015625 93.894531 402.296875 96.09375 C 400.855469 97.929688 399.472656 99.535156 397.753906 100.917969 C 397.332031 101.03125 396.90625 101.171875 396.484375 101.285156 C 397.359375 100.464844 398.148438 99.507812 398.824219 98.546875 C 401.929688 94.175781 403.960938 89.464844 408.445312 86.222656 C 408.640625 86.082031 408.445312 85.769531 408.246094 85.910156 C 404.777344 88.253906 402.492188 91.183594 400.347656 94.738281 C 398.65625 97.535156 396.878906 100.183594 394.339844 101.878906 C 392.449219 102.414062 390.53125 102.921875 388.613281 103.429688 C 385.851562 104.132812 383.058594 104.839844 380.265625 105.460938 C 378.742188 105.796875 376.964844 106.191406 375.328125 106.109375 C 375.78125 105.855469 376.230469 105.601562 376.683594 105.347656 C 379.730469 103.511719 382.746094 101.59375 385.765625 99.761719 C 385.992188 99.621094 385.792969 99.28125 385.566406 99.394531 C 382.972656 100.890625 380.347656 102.355469 377.753906 103.878906 C 376.511719 104.613281 375.273438 105.347656 373.976562 105.910156 C 373.550781 105.796875 373.128906 105.628906 372.761719 105.402344 C 373.832031 104.046875 374.734375 102.609375 375.554688 101.058594 C 375.582031 101.003906 375.609375 100.917969 375.636719 100.859375 C 375.808594 100.691406 375.949219 100.523438 376.0625 100.296875 C 376.511719 100.183594 376.90625 99.816406 376.683594 99.28125 C 376.683594 99.253906 376.65625 99.226562 376.65625 99.195312 C 377.585938 98.097656 378.574219 97.054688 379.671875 96.121094 C 380.039062 95.8125 379.984375 95.359375 379.757812 95.050781 C 379.984375 95.050781 380.207031 95.023438 380.433594 94.910156 C 381.140625 94.570312 381.929688 93.726562 382.550781 92.710938 C 382.945312 92.34375 383.3125 91.949219 383.679688 91.550781 C 385.457031 89.664062 387.175781 87.746094 388.925781 85.855469 C 389.121094 85.628906 388.8125 85.320312 388.585938 85.515625 C 386.867188 87.265625 385.171875 89.210938 383.3125 90.933594 C 383.847656 89.210938 383.566406 87.546875 381.507812 87.292969 C 379.8125 87.066406 378.488281 88.503906 377.667969 89.804688 C 376.765625 91.214844 376.289062 92.90625 376.570312 94.570312 C 376.683594 95.164062 377.132812 95.417969 377.613281 95.390625 C 376.710938 96.039062 375.894531 96.742188 375.128906 97.503906 C 374.59375 97.195312 374.003906 96.996094 373.382812 96.882812 C 375.1875 93.273438 376.65625 89.492188 378.035156 85.714844 C 378.148438 85.429688 377.699219 85.320312 377.613281 85.601562 C 376.117188 89.378906 374.566406 93.160156 372.648438 96.769531 C 372.449219 96.742188 372.28125 96.714844 372.085938 96.714844 C 370.785156 96.601562 370.167969 98.40625 371.039062 99.226562 C 371.070312 99.253906 371.125 99.308594 371.152344 99.339844 C 370.195312 100.859375 369.152344 102.328125 368.105469 103.765625 C 368.191406 102.582031 368.417969 101.425781 368.726562 100.296875 C 369.066406 99.027344 369.488281 97.816406 369.800781 96.546875 C 370.703125 94.964844 371.464844 93.300781 372.199219 91.609375 C 373.945312 87.574219 375.582031 83.511719 377.273438 79.453125 C 377.359375 79.226562 376.964844 79.054688 376.851562 79.28125 C 375.242188 82.894531 373.636719 86.476562 372.027344 90.085938 C 372.167969 87.492188 372.449219 83.035156 369.546875 82.949219 C 367.996094 82.894531 367.65625 84.304688 367.65625 85.515625 C 367.65625 87.125 367.457031 89.550781 368.390625 90.933594 C 368.53125 91.128906 368.726562 91.242188 368.925781 91.300781 C 368.925781 91.636719 369.09375 91.976562 369.320312 92.230469 C 368.617188 93.554688 367.683594 94.769531 367.035156 96.121094 C 366.949219 96.320312 366.867188 96.515625 366.78125 96.6875 C 366.78125 96.066406 366.753906 95.417969 366.726562 94.769531 C 366.554688 89.972656 366.328125 85.179688 366.328125 80.355469 C 366.359375 70.59375 367.230469 60.835938 370.054688 51.496094 C 370.136719 51.214844 369.6875 51.074219 369.601562 51.386719 C 366.894531 59.988281 365.792969 68.957031 365.570312 77.957031 C 365.457031 82.527344 365.539062 87.09375 365.738281 91.664062 C 365.792969 93.21875 365.878906 94.796875 365.90625 96.347656 C 364.75 91.496094 363.171875 86.644531 362.746094 81.707031 C 362.015625 72.851562 363.367188 63.851562 365.230469 55.191406 C 365.257812 55.023438 365.003906 54.9375 364.976562 55.109375 C 363.398438 62.046875 362.015625 69.015625 361.871094 76.121094 C 361.421875 68.28125 362.128906 60.4375 363.113281 52.683594 C 364.015625 45.601562 364.695312 37.167969 370.421875 32.117188 C 371.746094 30.933594 373.269531 30.03125 374.988281 29.523438 C 376.230469 29.15625 377.527344 29.015625 378.683594 28.394531 C 376.371094 31.019531 374.734375 34.515625 373.71875 37.675781 C 373.636719 37.957031 374.058594 38.070312 374.171875 37.789062 C 374.988281 35.644531 375.976562 33.585938 377.246094 31.695312 C 378.402344 29.945312 379.871094 28.507812 381.113281 26.84375 C 381.195312 26.730469 381.140625 26.5625 381.027344 26.476562 C 381.28125 26.222656 381.535156 25.996094 381.816406 25.773438 C 383.933594 24.023438 386.414062 24.503906 388.191406 26.421875 L 388.21875 26.449219 C 388.304688 26.871094 388.894531 26.871094 388.953125 26.421875 C 388.925781 25.574219 389.261719 25.011719 389.96875 24.671875 C 390.421875 24.050781 390.984375 23.96875 391.632812 24.445312 C 392.734375 24.753906 393.128906 25.152344 393.777344 26.082031 C 394.511719 27.125 395.046875 28.308594 395.382812 29.496094 C 396.089844 31.921875 396.117188 34.488281 395.609375 36.941406 C 395.101562 39.480469 394.085938 41.878906 392.875 44.164062 C 391.746094 46.25 390.25 48.226562 389.515625 50.511719 C 389.320312 51.160156 390.277344 51.554688 390.617188 50.960938 C 390.671875 50.875 390.703125 50.792969 390.757812 50.707031 C 390.816406 50.792969 390.957031 50.847656 391.066406 50.765625 C 392.988281 49.464844 394.621094 47.519531 396.683594 46.390625 C 395.722656 49.070312 394.03125 51.242188 392.535156 53.640625 C 390.957031 56.207031 389.628906 58.859375 388.359375 61.597656 C 388.246094 61.820312 388.585938 62.046875 388.726562 61.792969 C 390.277344 58.804688 392 55.871094 393.832031 53.046875 C 395.1875 50.988281 397.300781 48.789062 397.273438 46.167969 C 397.273438 46.136719 397.273438 46.109375 397.246094 46.082031 C 397.613281 45.910156 398.007812 45.769531 398.402344 45.660156 C 402.265625 44.640625 404.917969 47.070312 405.765625 50.625 C 405.851562 51.019531 406.5 51.046875 406.582031 50.625 C 407.175781 47.40625 404.183594 44.726562 401.195312 44.390625 C 397.300781 43.964844 393.804688 47.097656 391.265625 49.832031 C 394.792969 43.824219 398.824219 37.054688 396.851562 29.832031 C 396.230469 27.578125 394.652344 24.136719 392.195312 23.289062 C 390.476562 22.699219 388.53125 23.96875 388.277344 25.6875 C 387.261719 24.472656 385.738281 23.824219 384.101562 23.910156 C 381.394531 24.050781 380.152344 26.617188 377.808594 27.578125 C 375.214844 28.648438 372.761719 28.789062 370.421875 30.566406 C 368.8125 31.808594 367.457031 33.359375 366.386719 35.082031 C 366.273438 32.9375 365.285156 31.019531 363.960938 29.269531 C 363.085938 28.140625 362.070312 27.097656 361.140625 26.023438 C 360.066406 24.8125 359.363281 23.375 358.347656 22.160156 C 356.851562 20.414062 354.425781 22.640625 353.1875 23.710938 C 351.097656 25.519531 348.730469 27.519531 347.9375 30.285156 C 347.9375 30.3125 347.9375 30.339844 347.9375 30.339844 C 345.851562 29.382812 343.566406 28.902344 341.113281 29.183594 C 340.660156 29.242188 340.632812 29.945312 341.113281 29.917969 C 353.328125 29.355469 358.6875 45.039062 361.335938 54.402344 C 361.367188 54.488281 361.421875 54.574219 361.476562 54.628906 C 360.574219 61.625 360.011719 68.675781 360.351562 75.726562 C 360.632812 81.652344 362.128906 87.460938 362.859375 93.300781 C 362.464844 92.652344 362.097656 92.003906 361.84375 91.300781 C 361.761719 91.015625 361.5625 90.847656 361.367188 90.792969 C 362.464844 88.421875 361.253906 83.144531 358.433594 82.667969 C 356.683594 82.355469 356.035156 83.824219 356.148438 85.234375 C 353.410156 77.390625 350.929688 69.4375 348.785156 61.425781 C 348.699219 61.144531 348.277344 61.257812 348.363281 61.539062 C 350.449219 69.859375 352.789062 78.097656 355.609375 86.222656 C 356.625 89.15625 357.699219 92.058594 358.796875 94.9375 C 358.460938 94.457031 358.066406 94.035156 357.671875 93.613281 C 355.609375 89.492188 353.722656 85.320312 352 81.058594 C 348.558594 72.484375 345.90625 63.625 343.707031 54.65625 C 343.652344 54.488281 343.398438 54.542969 343.425781 54.742188 C 345.175781 64.21875 347.996094 73.441406 351.605469 82.355469 C 352.988281 85.742188 354.484375 89.097656 356.089844 92.371094 C 356.035156 92.34375 355.976562 92.285156 355.949219 92.257812 C 355.359375 91.863281 354.339844 92.089844 354.03125 92.765625 C 353.917969 92.992188 353.863281 93.21875 353.804688 93.441406 C 350.308594 88.109375 347.375 82.355469 345.710938 76.179688 C 345.625 75.898438 345.230469 76.011719 345.289062 76.292969 C 346.839844 82.921875 349.800781 88.957031 353.582031 94.597656 C 355.359375 97.25 357.277344 99.816406 359.277344 102.300781 C 359.671875 102.78125 360.039062 103.289062 360.433594 103.796875 C 359.023438 103.203125 357.53125 102.695312 356.148438 102.101562 C 355.835938 101.960938 355.554688 102.414062 355.867188 102.582031 C 357.726562 103.457031 359.644531 104.585938 361.589844 105.347656 C 361.648438 105.429688 361.703125 105.515625 361.789062 105.574219 C 361.988281 105.910156 362.210938 106.25 362.4375 106.585938 C 362.378906 106.585938 362.296875 106.585938 362.210938 106.617188 C 361.871094 106.699219 361.535156 106.8125 361.195312 106.925781 C 358.910156 106.136719 356.484375 105.628906 354.199219 104.808594 C 350.929688 103.683594 347.710938 102.355469 344.636719 100.777344 C 344.414062 100.664062 344.1875 101.003906 344.441406 101.144531 C 348.953125 103.710938 354.089844 106.164062 359.277344 107.433594 C 357.472656 107.714844 355.808594 107.886719 353.890625 107.574219 C 351.945312 107.238281 350.054688 106.617188 348.191406 105.996094 C 347.855469 105.882812 347.742188 106.390625 348.050781 106.503906 C 350.222656 107.347656 352.929688 108.449219 355.554688 108.675781 C 355.386719 108.730469 355.214844 108.789062 355.046875 108.816406 C 352.113281 109.578125 349.347656 109.578125 346.386719 108.984375 C 341.226562 107.96875 336.625 106.84375 331.296875 107.292969 C 321.675781 108.140625 309.238281 111.328125 303.171875 101.3125 C 303.003906 101.03125 302.46875 101.199219 302.609375 101.566406 C 306.386719 112.003906 319.957031 110.167969 328.503906 109.125 C 331.4375 108.757812 334.371094 108.476562 337.332031 108.730469 C 339.816406 108.929688 342.210938 109.605469 344.636719 110.140625 C 332.171875 111.863281 321.648438 120.242188 312.339844 128.25 C 311.636719 128.84375 312.648438 129.832031 313.355469 129.265625 C 323.257812 120.972656 333.242188 112.398438 346.472656 110.535156 C 346.558594 110.566406 346.667969 110.566406 346.753906 110.59375 C 348.078125 110.820312 349.347656 110.902344 350.617188 110.875 C 348.839844 111.578125 347.121094 112.398438 345.457031 113.214844 C 342.070312 114.882812 338.574219 116.714844 335.640625 119.140625 C 334.371094 120.183594 333.328125 121.367188 332.425781 122.722656 C 331.265625 124.5 329.941406 125.542969 328.335938 126.871094 C 325.765625 128.957031 323.59375 131.890625 322.636719 135.078125 C 322.582031 135.273438 322.863281 135.386719 322.972656 135.21875 C 324.636719 131.609375 326.671875 128.984375 329.855469 126.644531 C 332.394531 124.78125 333.550781 121.933594 335.949219 119.902344 C 341.339844 115.332031 348.078125 112.933594 354.566406 110.367188 C 357.21875 109.832031 359.816406 108.929688 362.4375 107.996094 C 362.550781 107.996094 362.664062 107.96875 362.71875 107.886719 C 362.917969 107.773438 363.058594 107.574219 363.085938 107.378906 C 363.253906 107.574219 363.398438 107.773438 363.59375 107.96875 C 359.644531 109.265625 355.753906 110.847656 352.199219 112.964844 C 347.855469 115.558594 344.667969 119.054688 342.128906 123.398438 C 340.632812 125.964844 339.25 128.535156 337.390625 130.875 C 335.527344 133.214844 333.382812 135.332031 331.464844 137.617188 C 328.390625 141.285156 325.738281 145.597656 325.796875 150.535156 C 325.796875 150.761719 326.132812 150.761719 326.132812 150.535156 C 326.414062 144.722656 329.996094 140.324219 333.75 136.207031 C 337.132812 132.511719 339.957031 128.816406 342.464844 124.472656 C 345.0625 119.984375 348.136719 116.375 352.621094 113.695312 C 356.035156 111.636719 359.757812 110.253906 363.480469 108.898438 C 363.140625 109.210938 362.804688 109.523438 362.464844 109.804688 C 360.265625 111.75 358.179688 113.753906 356.148438 115.867188 C 352.140625 120.042969 348.644531 124.527344 345.429688 129.324219 C 345.289062 129.519531 345.597656 129.691406 345.738281 129.492188 C 348.871094 125.234375 352.3125 121.113281 355.949219 117.277344 C 357.613281 115.527344 359.335938 113.835938 361.113281 112.203125 C 362.183594 111.214844 363.285156 110.085938 364.496094 109.15625 C 363.621094 112.3125 362.378906 115.332031 360.6875 118.152344 C 359.644531 119.929688 358.433594 121.59375 357.078125 123.144531 C 356.089844 124.300781 354.765625 125.316406 354.144531 126.730469 C 353.382812 128.503906 353.296875 130.367188 352.28125 132.117188 C 351.265625 133.863281 349.855469 135.386719 348.363281 136.769531 C 345.429688 139.476562 342.101562 141.707031 339.421875 144.722656 C 339.25 144.921875 339.53125 145.230469 339.730469 145.035156 C 342.496094 141.960938 346.050781 139.789062 349.09375 137.023438 C 351.859375 134.511719 353.636719 131.722656 354.539062 128.082031 C 355.101562 125.855469 357.105469 124.386719 358.515625 122.664062 C 359.644531 121.285156 360.632812 119.816406 361.535156 118.265625 C 363.140625 115.5 364.382812 112.539062 365.230469 109.464844 C 365.257812 109.492188 365.316406 109.550781 365.34375 109.578125 C 365.425781 109.691406 365.511719 109.773438 365.625 109.832031 C 365.878906 110.058594 366.105469 110.28125 366.359375 110.507812 C 366.386719 110.535156 366.414062 110.535156 366.445312 110.535156 C 366.160156 112.933594 365.03125 115.417969 364.300781 117.589844 C 363.339844 120.410156 362.324219 123.203125 361.195312 125.964844 C 361.113281 126.191406 361.507812 126.363281 361.589844 126.136719 C 362.917969 123.117188 364.1875 120.101562 365.285156 116.996094 C 366.078125 114.742188 367.289062 112.203125 367.261719 109.746094 C 367.65625 109.605469 368.050781 109.410156 368.445312 109.183594 C 368.023438 114.457031 367.769531 119.675781 366.246094 124.808594 C 364.609375 130.253906 361.167969 134.992188 360.351562 140.691406 C 360.265625 141.226562 361.054688 141.453125 361.167969 140.917969 C 362.296875 135.078125 366.019531 130.140625 367.710938 124.441406 C 368.585938 121.511719 369.152344 118.433594 369.519531 115.304688 C 369.660156 116.121094 369.800781 116.941406 369.96875 117.703125 C 370.957031 122.214844 372.113281 126.699219 373.324219 131.15625 C 373.410156 131.496094 373.917969 131.355469 373.859375 131.015625 C 373.128906 126.785156 372.308594 122.582031 371.40625 118.351562 C 370.984375 116.402344 370.644531 114.457031 370.589844 112.453125 C 370.535156 110.734375 370.785156 109.070312 370.929688 107.378906 C 370.984375 107.378906 371.070312 107.347656 371.125 107.347656 C 371.179688 107.828125 371.238281 108.335938 371.324219 108.816406 C 371.125 109.632812 371.296875 110.367188 371.632812 111.074219 C 372.054688 113.867188 372.59375 116.65625 373.609375 119.195312 C 374.960938 122.523438 377.304688 125.203125 380.238281 127.234375 C 380.488281 127.40625 380.714844 127.011719 380.488281 126.8125 C 375.609375 123.316406 373.890625 118.179688 372.875 112.738281 C 373.4375 113.300781 374.058594 113.808594 374.652344 114.261719 C 376.230469 115.445312 377.867188 116.546875 379.585938 117.53125 C 381.308594 118.519531 383.707031 119.253906 384.664062 121.113281 C 384.777344 121.339844 385.089844 121.144531 384.976562 120.917969 C 383.875 118.6875 381.195312 117.84375 379.222656 116.574219 C 376.851562 115.050781 373.71875 113.273438 372.535156 110.621094 C 372.394531 109.664062 372.253906 108.675781 372.113281 107.714844 C 373.777344 109.492188 375.527344 111.1875 377.558594 112.511719 C 380.546875 114.457031 384.042969 115.304688 387.375 116.515625 C 394.679688 119.195312 401.675781 122.976562 407.910156 127.632812 C 408.078125 127.742188 408.21875 127.488281 408.078125 127.347656 C 402.378906 122.976562 396.285156 119.335938 389.65625 116.601562 C 386.214844 115.191406 382.464844 114.289062 379.222656 112.511719 C 376.90625 111.242188 374.960938 109.4375 373.128906 107.546875 C 381.167969 110.199219 389.96875 111.015625 398.320312 111.523438 C 402.859375 111.804688 407.824219 112.511719 412.335938 111.945312 C 416.9375 111.355469 420.375 107.601562 425.226562 108.957031 C 425.878906 109.15625 426.214844 108.253906 425.679688 107.886719 C 422.265625 105.65625 418.347656 108.28125 415.101562 109.578125 C 410.644531 111.355469 405.003906 110.3125 400.320312 110.058594 C 392.734375 109.664062 385.34375 108.84375 377.980469 107.433594 C 380.828125 107.09375 383.761719 106.109375 385.964844 105.542969 C 393.496094 103.65625 400.96875 101.453125 408.304688 98.914062 C 411.914062 97.675781 415.496094 96.347656 419.050781 94.964844 C 421.957031 93.835938 425.480469 92.90625 428.019531 91.015625 C 428.953125 90.3125 429.488281 89.523438 430.023438 88.476562 C 430.785156 86.953125 432.140625 85.96875 432.929688 84.5 C 433.804688 82.835938 433.71875 81.03125 432.875 79.507812 C 433.351562 78.972656 433.746094 78.378906 434.027344 77.703125 C 434.59375 76.601562 435.722656 71.664062 432.757812 72.34375 Z M 414 128.644531 C 414.933594 127.515625 415.269531 126.558594 415.355469 125.121094 C 415.410156 124.246094 415.441406 123.425781 416.203125 122.890625 C 416.484375 122.695312 416.851562 122.976562 416.851562 123.257812 C 416.878906 123.878906 416.652344 124.472656 416.570312 125.09375 C 416.484375 125.65625 416.425781 126.25 416.257812 126.8125 C 415.917969 127.773438 415.300781 128.644531 414.425781 129.183594 C 414.058594 129.378906 413.746094 128.929688 414 128.644531 Z M 381.476562 136.65625 C 384.609375 138.519531 387.542969 137.53125 390.898438 137.785156 C 392.507812 137.925781 393.890625 138.632812 395.441406 139.054688 C 397.132812 139.507812 398.796875 139.394531 400.433594 138.941406 C 398.09375 137.390625 396.003906 135.640625 393.351562 134.542969 C 393.183594 134.457031 393.296875 134.175781 393.464844 134.261719 C 396.144531 135.332031 399.164062 136.574219 401.167969 138.746094 C 403.707031 137.925781 406.019531 136.769531 408.191406 135.332031 C 408.164062 135.304688 408.132812 135.246094 408.105469 135.191406 C 406.808594 130.988281 402.691406 129.265625 399.164062 127.179688 C 398.9375 127.039062 399.136719 126.730469 399.363281 126.839844 C 402.886719 128.589844 407.910156 130.535156 408.726562 134.9375 C 409.261719 134.570312 409.769531 134.175781 410.308594 133.75 C 410.703125 133.441406 411.152344 133.808594 410.984375 134.261719 C 409.65625 137.304688 405.425781 138.660156 402.578125 139.761719 C 400.714844 140.464844 398.742188 140.972656 396.710938 140.773438 C 394.621094 140.578125 392.816406 139.421875 390.757812 139.195312 C 388.699219 138.96875 386.640625 139.449219 384.582031 139.082031 C 383.058594 138.800781 381.648438 138.152344 380.40625 137.191406 C 377.925781 135.304688 375.921875 132.484375 374.425781 129.804688 C 374.226562 129.464844 374.734375 129.152344 374.960938 129.492188 C 376.851562 132.171875 378.574219 134.9375 381.476562 136.65625 Z M 424.042969 120.804688 C 424.324219 122.949219 422.492188 124.835938 421.222656 126.304688 C 420.742188 126.839844 420.152344 127.375 419.757812 127.96875 C 418.769531 129.351562 419.164062 129.859375 418.9375 131.183594 C 418.796875 132.03125 418.457031 132.820312 417.921875 133.527344 C 417.300781 134.34375 416.425781 135.050781 415.441406 135.304688 C 414.3125 138.574219 411.125 140.410156 407.910156 141.285156 C 403.253906 142.523438 398.234375 142.835938 393.464844 143.453125 C 389.460938 143.992188 385.0625 144.667969 381.253906 142.890625 C 377.925781 141.339844 375.328125 137.730469 374.285156 134.289062 C 374.085938 133.609375 374.988281 133.359375 375.328125 133.835938 C 377.726562 137.050781 378.882812 140.664062 383.085938 141.988281 C 386.527344 143.0625 390.308594 142.410156 393.777344 141.960938 C 397.753906 141.453125 401.816406 141.113281 405.765625 140.4375 C 409.320312 139.816406 412.648438 138.492188 414.507812 135.386719 C 414.3125 135.386719 414.140625 135.359375 413.945312 135.332031 C 413.691406 135.273438 413.605469 134.851562 413.859375 134.738281 C 414.820312 134.289062 415.863281 133.976562 416.625 133.214844 C 417.949219 131.890625 417.554688 130.621094 417.894531 129.011719 C 418.203125 127.574219 419.472656 126.558594 420.40625 125.515625 C 420.914062 124.953125 421.421875 124.359375 421.84375 123.765625 C 422.519531 122.808594 423.085938 121.253906 422.632812 120.070312 C 422.324219 119.28125 421.25 118.6875 420.742188 118.011719 C 419.839844 116.742188 419.671875 115.277344 420.261719 113.835938 C 420.347656 113.613281 420.800781 113.613281 420.742188 113.894531 C 420.460938 116.234375 421.449219 117.25 422.914062 118.773438 C 423.480469 119.367188 423.929688 119.984375 424.042969 120.804688 Z M 427.398438 111.4375 C 427.65625 112.371094 427.003906 112.964844 426.300781 113.441406 C 424.945312 114.34375 423.449219 115.417969 421.957031 116.066406 C 421.589844 116.234375 421.109375 115.753906 421.476562 115.445312 C 422.265625 114.796875 423.167969 114.316406 424.042969 113.78125 C 424.550781 113.472656 426.246094 112.765625 426.527344 112.003906 C 425.59375 111.945312 424.804688 111.410156 424.410156 110.535156 C 424.296875 110.3125 424.496094 110.113281 424.691406 110.113281 C 423.199219 109.351562 421.222656 110.707031 419.980469 111.523438 C 418.570312 112.453125 417.472656 113.640625 416.3125 114.851562 C 416.144531 115.023438 415.835938 114.796875 415.976562 114.597656 C 417.160156 112.625 419.023438 111.042969 421.054688 109.972656 C 422.40625 109.265625 424.101562 108.476562 425.398438 109.664062 C 425.707031 109.945312 425.285156 110.507812 424.945312 110.253906 C 424.945312 110.253906 424.917969 110.253906 424.917969 110.226562 C 425.371094 110.875 426.101562 111.214844 426.890625 111.101562 C 427.089844 111.074219 427.34375 111.1875 427.398438 111.4375 Z M 361.308594 142.550781 C 361.988281 145.910156 360.886719 149.632812 359.082031 152.453125 C 358.574219 153.273438 357.671875 154.9375 356.597656 155.050781 C 355.554688 155.160156 355.160156 153.414062 354.425781 153.328125 C 354.425781 153.441406 354.398438 153.527344 354.339844 153.636719 C 351.832031 157.671875 346.5 159.109375 342.183594 160.265625 C 339.304688 161.058594 336.316406 161.847656 333.300781 161.847656 C 330.222656 161.875 327.261719 160.859375 324.1875 160.773438 C 323.847656 160.773438 323.847656 160.265625 324.1875 160.238281 C 326.867188 159.984375 329.433594 160.464844 332.113281 160.519531 C 335.019531 160.578125 337.839844 159.957031 340.632812 159.195312 C 345.484375 157.898438 349.773438 156.542969 353.328125 152.847656 C 353.582031 152.59375 353.890625 152.621094 354.117188 152.761719 C 354.625 152.539062 354.707031 152.539062 355.300781 152.792969 C 355.921875 153.046875 355.609375 153.328125 356.289062 153.46875 C 357.277344 153.667969 357.585938 152.621094 358.09375 151.832031 C 359.871094 148.929688 360.152344 145.9375 360.320312 142.636719 C 360.351562 142.15625 361.195312 141.988281 361.308594 142.550781 Z M 330.5625 75.21875 C 330.871094 75.21875 331.183594 75.21875 331.523438 75.21875 C 331.832031 75.246094 332.171875 75.191406 332.453125 75.21875 C 332.480469 75.21875 332.535156 75.21875 332.566406 75.21875 C 333.976562 77.390625 335.527344 79.507812 337.277344 81.453125 C 337.417969 81.59375 337.558594 81.679688 337.726562 81.707031 C 338.121094 82.441406 338.546875 83.144531 338.96875 83.851562 C 336.625 81.792969 334.34375 79.707031 332.113281 77.449219 C 331.410156 76.742188 330.703125 76.011719 329.96875 75.304688 C 330.140625 75.246094 330.335938 75.21875 330.5625 75.21875 Z M 292.03125 77.957031 C 292.734375 75.757812 292.875 73.414062 294.539062 71.664062 C 296.742188 69.382812 300.042969 68.5625 302.4375 66.476562 C 302.550781 66.53125 302.695312 66.5625 302.863281 66.503906 C 306.867188 65.234375 310.621094 64.980469 314.652344 66.25 C 318.40625 67.433594 321.707031 69.691406 324.667969 72.203125 C 329.828125 76.546875 334.230469 82.300781 340.125 85.714844 C 340.773438 86.699219 341.449219 87.660156 342.183594 88.621094 C 344.160156 91.242188 346.332031 93.726562 348.730469 95.980469 C 351.097656 98.238281 353.777344 100.777344 356.710938 102.269531 C 357.332031 102.582031 358.09375 101.765625 357.5 101.226562 C 355.019531 99 352.226562 97.195312 349.828125 94.882812 C 347.316406 92.484375 344.976562 89.859375 342.917969 87.039062 C 339.023438 81.707031 336.007812 75.757812 334.03125 69.4375 C 332.847656 65.628906 332.058594 61.707031 331.464844 57.757812 C 330.902344 53.894531 330.054688 49.664062 331.042969 45.800781 C 331.859375 42.613281 333.664062 39.789062 334.765625 36.714844 C 335.214844 35.476562 335.554688 34.179688 335.640625 32.851562 C 335.695312 32.175781 335.414062 31.160156 335.613281 30.511719 C 336.484375 27.519531 338.375 30.003906 339.054688 30.878906 C 339.304688 31.214844 339.816406 30.792969 339.644531 30.425781 C 338.910156 29.070312 337.164062 27.011719 335.472656 28.226562 C 333.804688 29.410156 334.652344 32.878906 334.257812 34.542969 C 333.695312 36.886719 332.566406 39.03125 331.550781 41.230469 C 331.210938 39.933594 330.675781 38.605469 330.308594 37.367188 C 330.222656 37.082031 329.773438 37.195312 329.855469 37.476562 C 330.253906 39.03125 330.476562 40.808594 331.070312 42.328125 C 330.984375 42.554688 330.871094 42.753906 330.789062 42.980469 C 330.535156 43.628906 330.308594 44.304688 330.113281 44.953125 C 328.671875 42.046875 326.558594 38.636719 326.527344 35.417969 C 326.527344 35.136719 326.078125 35.136719 326.078125 35.417969 C 325.992188 39.058594 328.050781 42.867188 329.746094 46.023438 C 329.773438 46.082031 329.800781 46.109375 329.828125 46.136719 C 329.433594 48 329.378906 49.917969 329.519531 51.921875 C 330.027344 59 331.296875 65.9375 333.609375 72.484375 C 330.902344 65.769531 327.882812 59.113281 326.359375 52.0625 C 326.304688 51.777344 325.851562 51.894531 325.90625 52.175781 C 326.78125 56.828125 328.335938 61.230469 330.027344 65.65625 C 330.675781 67.378906 331.265625 69.210938 331.917969 71.046875 C 331.210938 69.804688 330.535156 68.5625 329.886719 67.292969 C 327.515625 62.722656 324.894531 58.070312 323.933594 52.9375 C 323.003906 48.054688 322.664062 42.441406 323.199219 37.507812 C 323.484375 34.910156 324.386719 32.175781 326.414062 30.453125 C 328.585938 28.621094 331.523438 28.675781 333.722656 30.371094 C 334.058594 30.652344 334.425781 30.085938 334.171875 29.804688 C 331.296875 26.421875 326.246094 28.140625 323.960938 31.300781 C 320.605469 35.925781 321.453125 42.867188 321.789062 48.195312 C 321.988281 51.214844 322.410156 54.234375 323.367188 57.109375 C 324.355469 59.988281 325.796875 62.722656 327.148438 65.433594 C 328.671875 68.476562 330.28125 71.523438 332.085938 74.402344 C 331.972656 74.34375 331.890625 74.316406 331.746094 74.289062 C 331.410156 74.234375 331.042969 74.175781 330.675781 74.175781 C 330.195312 74.148438 329.519531 74.09375 329.09375 74.375 C 327.234375 72.539062 325.316406 70.792969 323.199219 69.210938 C 317.585938 65.007812 309.125 61.652344 302.382812 65.320312 C 302.1875 65.433594 302.101562 65.601562 302.101562 65.796875 C 298.914062 68.308594 294.230469 68.957031 292.3125 72.878906 C 291.269531 75.023438 290.734375 77.535156 289.886719 79.761719 C 289.097656 81.90625 289.660156 83.484375 290.761719 85.402344 C 291.183594 86.136719 292.339844 85.460938 291.890625 84.726562 C 291.015625 83.257812 290.507812 81.933594 291.070312 80.242188 C 291.351562 79.507812 291.75 78.773438 292.03125 77.957031 Z M 299.984375 100.070312 C 296.742188 99.085938 294.625 95.757812 293.46875 92.144531 C 293.441406 92.117188 293.386719 92.117188 293.355469 92.089844 C 293.101562 91.949219 293.128906 91.664062 293.269531 91.496094 C 292.566406 89.042969 292.285156 86.476562 292.367188 84.5 C 292.453125 82.863281 292.875 81.339844 293.636719 79.875 C 294.652344 77.984375 295.21875 76.265625 295.726562 74.175781 C 296.316406 71.695312 297.25 69.324219 299.84375 68.421875 C 300.238281 68.28125 300.378906 68.875 300.015625 69.042969 C 296.710938 70.398438 296.9375 74.375 296.175781 77.222656 C 295.726562 78.886719 294.878906 80.242188 294.289062 81.734375 C 302.128906 84.558594 309.96875 87.40625 317.8125 90.253906 C 321.789062 91.695312 325.796875 93.160156 329.773438 94.628906 C 333.582031 96.039062 337.332031 97.617188 341.308594 98.519531 C 341.507812 98.546875 341.421875 98.832031 341.226562 98.804688 C 333.15625 97.277344 325.316406 93.808594 317.613281 91.042969 C 309.746094 88.222656 301.875 85.402344 294.003906 82.554688 C 293.78125 83.257812 293.636719 84.019531 293.609375 84.839844 C 293.582031 87.238281 294.003906 89.746094 294.9375 92.03125 C 297.699219 93.527344 300.605469 94.769531 303.625 95.671875 C 306.5 96.546875 309.464844 96.996094 312.398438 97.644531 C 315.21875 98.292969 317.390625 99.535156 319.816406 101.085938 C 322.582031 102.835938 325.625 104.105469 328.8125 104.808594 C 328.984375 104.839844 328.925781 105.121094 328.730469 105.09375 C 325.796875 104.5 323.058594 103.597656 320.4375 102.128906 C 317.445312 100.4375 314.90625 98.886719 311.496094 98.210938 C 305.851562 97.082031 300.550781 95.757812 295.472656 93.21875 C 296.628906 95.558594 298.265625 97.617188 300.464844 99.054688 C 300.972656 99.367188 300.632812 100.269531 299.984375 100.070312 Z M 404.296875 58.804688 C 404.523438 59.253906 404.777344 59.875 405.117188 60.328125 C 403.367188 61.171875 401.730469 62.1875 400.234375 63.484375 C 397.191406 66.136719 394.820312 69.410156 391.265625 71.355469 C 392.167969 69.945312 393.070312 68.5625 394.058594 67.207031 C 396.765625 63.515625 400.460938 60.550781 403.421875 57.054688 C 403.648438 57.675781 404.015625 58.238281 404.296875 58.804688 Z M 406.300781 51.695312 C 402.746094 57.421875 397.105469 61.257812 393.042969 66.5625 C 390.871094 69.382812 388.980469 72.425781 387.0625 75.417969 C 384.863281 78.800781 382.265625 82.160156 380.488281 85.742188 C 380.207031 86.332031 381 87.039062 381.449219 86.476562 C 381.984375 85.796875 382.523438 85.121094 383 84.386719 C 383.085938 84.472656 383.253906 84.5 383.394531 84.386719 C 386.441406 81.847656 390.082031 80.042969 393.015625 77.363281 C 396.03125 74.570312 397.585938 70.480469 401.054688 68.167969 C 401.308594 68 401.082031 67.605469 400.800781 67.746094 C 397.386719 69.917969 395.78125 73.585938 392.957031 76.375 C 390.390625 78.945312 386.722656 80.296875 384.101562 82.78125 C 385.457031 80.691406 386.722656 78.519531 388.050781 76.460938 C 388.867188 75.164062 389.6875 73.867188 390.503906 72.566406 C 390.5625 72.566406 390.617188 72.566406 390.671875 72.566406 C 393.804688 71.554688 396.117188 69.269531 398.402344 67.039062 C 401.476562 64.023438 404.582031 61.792969 408.699219 60.382812 C 410.390625 59.820312 412.167969 59.140625 413.945312 58.832031 C 416.425781 58.40625 417.132812 60.917969 418.710938 62.1875 C 421.054688 64.105469 424.46875 64.5 426.441406 66.871094 C 426.273438 66.871094 426.128906 66.871094 425.960938 66.871094 C 424.042969 66.785156 422.210938 66.617188 420.292969 66.898438 C 412.140625 68.054688 406.019531 74.09375 401.167969 80.296875 C 400.96875 80.550781 401.308594 80.945312 401.535156 80.664062 C 405.398438 76.039062 409.910156 71.636719 415.636719 69.492188 C 417.640625 68.734375 419.699219 68.308594 421.816406 68.226562 C 419.5 70.539062 417.246094 72.652344 414.539062 74.601562 C 412.082031 76.375 409.574219 78.125 407.457031 80.269531 C 405.03125 82.722656 403.734375 85.683594 402.210938 88.730469 C 400.265625 92.679688 397.332031 95.726562 393.15625 97.277344 C 392.929688 97.363281 393.042969 97.703125 393.242188 97.617188 C 396.285156 96.546875 398.9375 94.769531 400.882812 92.175781 C 403.394531 88.789062 404.410156 84.585938 407.316406 81.425781 C 409.742188 78.773438 412.789062 76.800781 415.695312 74.683594 C 418.175781 72.878906 421.054688 70.875 422.660156 68.167969 C 423.140625 68.167969 423.621094 68.167969 424.128906 68.226562 C 425.566406 68.335938 427.003906 68.535156 428.445312 68.308594 C 429.007812 68.226562 433.097656 67.292969 433.238281 68.621094 C 433.125 68.535156 432.957031 68.535156 432.84375 68.675781 C 430.050781 71.921875 427.289062 74.824219 423.621094 77.109375 C 423.367188 77.28125 423.59375 77.644531 423.847656 77.503906 C 427.289062 75.671875 430.617188 73.105469 432.84375 69.859375 C 432.902344 70.339844 433.550781 70.734375 433.945312 70.285156 C 435.296875 68.703125 434.113281 66.589844 432.167969 66.25 C 430.8125 65.996094 429.402344 66.390625 427.992188 66.671875 C 427.992188 66.671875 427.992188 66.644531 427.964844 66.644531 C 426.1875 63.570312 422.546875 63.230469 419.898438 61.257812 C 418.488281 60.214844 417.949219 58.183594 416.285156 57.476562 C 414.707031 56.828125 412.875 57.503906 411.320312 57.957031 C 409.601562 58.464844 407.9375 59.027344 406.300781 59.734375 C 406.160156 59.140625 405.734375 58.550781 405.398438 58.097656 C 404.976562 57.503906 404.46875 56.886719 403.820312 56.519531 C 404.976562 55.109375 405.992188 53.613281 406.78125 51.921875 C 406.921875 51.667969 406.5 51.386719 406.300781 51.695312 " fill-opacity="1" fill-rule="nonzero"/></g><g clip-path="url(#5cec49bca1)"><path fill="#000000" d="M 376.75 342.449219 C 374.804688 329.035156 372.859375 315.625 371.5 302.132812 C 370.136719 288.722656 369.109375 275.253906 368.582031 261.789062 C 368.191406 252.105469 368.441406 239.300781 377.640625 233.421875 C 378.640625 232.789062 378.890625 231.378906 378.027344 230.523438 C 364.441406 217.222656 362.414062 196.75 364.109375 178.8125 C 365.191406 167.277344 367.636719 155.910156 369.136719 144.429688 C 370.527344 133.722656 371.527344 122.246094 368.582031 111.675781 C 365.886719 101.992188 358.386719 92.828125 347.605469 92.386719 C 346.714844 92.359375 346.714844 93.683594 347.605469 93.765625 C 357.855469 94.566406 364.386719 103.867188 366.527344 113.054688 C 369 123.761719 367.664062 135.40625 366.054688 146.113281 C 363.054688 166.230469 357.800781 186.429688 361.941406 206.765625 C 363.804688 215.898438 367.636719 224.621094 373.917969 231.574219 C 367.054688 237.066406 365.136719 246.335938 364.832031 254.808594 C 364.609375 260.574219 365.054688 266.398438 365.386719 272.136719 C 365.777344 278.953125 366.277344 285.769531 366.886719 292.558594 C 368.082031 306.105469 369.664062 319.65625 371.664062 333.121094 C 373.609375 346.367188 376.027344 359.722656 374.890625 373.132812 C 373.859375 385.382812 369.414062 397.304688 360.441406 405.996094 C 358.800781 407.570312 361.246094 409.941406 362.914062 408.453125 C 371.109375 401.332031 375.695312 390.738281 377.640625 380.25 C 379.945312 367.75 378.554688 354.976562 376.75 342.449219 Z M 376.75 342.449219 " fill-opacity="1" fill-rule="nonzero"/></g></svg>